<svg width="38" height="38" version="1.1" viewBox="0 0 10.054 10.054" xmlns="http://www.w3.org/2000/svg">
 <g>
  <path d="m4.1851 4.8342q0.29633-0.023518 0.62089-0.10818t0.59266-0.254q0.27281-0.17404 0.44685-0.45155 0.17404-0.28222 0.17404-0.70085 0-0.29163-0.056444-0.5127-0.056444-0.22107-0.17404-0.37159-0.11289-0.15522-0.30104-0.23048-0.18344-0.075259-0.44215-0.075259-0.23989 0-0.48918 0.079963-0.24459 0.079962-0.47037 0.19755-0.22578 0.11289-0.41863 0.23518-0.18815 0.1223-0.31044 0.21167h-0.18344l-0.028222-0.93133q0.10348-0.042333 0.2587-0.11759 0.15993-0.075259 0.36689-0.14581t0.45626-0.1223q0.254-0.051741 0.54092-0.051741 0.42333 0 0.80903 0.1317 0.3857 0.1317 0.68203 0.381 0.29633 0.24459 0.47037 0.60678 0.17874 0.36218 0.17874 0.81844t-0.16463 0.81374q-0.15993 0.35278-0.44215 0.62089-0.28222 0.26811-0.65852 0.44215t-0.79963 0.27281l-0.032926 0.93133h-0.62559zm-0.39981 3.0339q0-0.14581 0.056444-0.27752t0.15052-0.22578q0.094074-0.098777 0.22107-0.15052 0.1317-0.056444 0.28222-0.056444 0.14581 0 0.27281 0.056444 0.1317 0.051741 0.23048 0.15052 0.098777 0.094074 0.15052 0.22578 0.056444 0.1317 0.056444 0.27752 0 0.14581-0.056444 0.27752-0.051741 0.127-0.15052 0.22107-0.098777 0.08937-0.23048 0.14581-0.127 0.056444-0.27281 0.056444-0.15052 0-0.28222-0.056444-0.127-0.056444-0.22107-0.14581-0.094074-0.094074-0.15052-0.22107-0.056444-0.1317-0.056444-0.27752z" fill="#c5c5c5" stroke-width=".26458"/>
 </g>
</svg>
