<?xml version="1.0" standalone="no"?>
<!DOCTYPE svg PUBLIC "-//W3C//DTD SVG 20010904//EN"
 "http://www.w3.org/TR/2001/REC-SVG-20010904/DTD/svg10.dtd">
<svg version="1.0" xmlns="http://www.w3.org/2000/svg"
 width="512.000000pt" height="512.000000pt" viewBox="0 0 512.000000 512.000000"
 preserveAspectRatio="xMidYMid meet">
<metadata>
Created by potrace 1.14, written by Peter Selinger 2001-2017
</metadata>
<g transform="translate(0.000000,512.000000) scale(0.100000,-0.100000)"
fill="#000000" stroke="none">
<path d="M1640 5104 c-108 -29 -194 -99 -241 -199 -16 -33 -29 -68 -29 -77 0
-14 -9 -18 -37 -19 -219 -5 -334 -27 -457 -87 -268 -130 -423 -392 -428 -720
0 -23 -4 -45 -9 -47 -4 -3 -34 -10 -66 -16 -131 -24 -250 -115 -302 -231 -72
-161 -88 -478 -37 -707 28 -124 87 -212 186 -278 49 -32 130 -63 167 -63 13 0
23 -3 24 -7 1 -5 2 -42 4 -83 3 -85 14 -318 20 -430 4 -70 7 -107 21 -270 25
-304 214 -556 494 -659 97 -35 152 -43 415 -56 66 -4 143 -8 170 -10 45 -3
392 -16 534 -19 44 -1 55 -5 61 -20 7 -21 2 -66 -9 -67 -12 -1 -116 -7 -236
-14 -66 -3 -138 -8 -160 -10 -22 -2 -67 -6 -100 -9 -211 -18 -340 -73 -466
-197 -122 -120 -190 -267 -203 -439 -12 -162 -17 -300 -11 -319 3 -12 16 -27
28 -33 17 -10 361 -13 1582 -14 1661 -1 1605 -3 1620 45 6 19 0 210 -10 316
-15 152 -47 220 -100 213 -20 -2 -30 7 -63 61 -33 55 -37 68 -29 91 16 43 1
73 -60 123 -115 93 -241 139 -413 153 -36 2 -83 6 -105 8 -50 5 -271 18 -345
20 l-55 2 -3 42 c-2 23 0 42 5 43 4 1 44 2 88 4 362 13 556 21 690 30 55 3
132 8 170 10 182 11 358 86 485 207 46 44 130 148 130 162 0 5 8 20 18 34 20
29 58 129 67 174 3 16 7 38 9 50 8 41 19 170 31 348 3 52 15 301 20 420 2 30
3 65 4 76 1 17 9 22 41 27 63 8 163 60 213 110 85 86 122 177 145 357 12 91 7
320 -8 395 -8 39 -15 72 -15 75 -16 80 -55 159 -107 216 -59 64 -175 122 -256
128 -18 2 -37 7 -41 12 -5 5 -11 50 -14 99 -9 139 -27 215 -75 315 -77 162
-201 284 -365 359 -95 44 -149 59 -250 67 -39 4 -79 8 -87 10 -8 1 -43 3 -77
3 -53 1 -63 4 -63 19 0 32 -57 137 -96 175 -171 169 -436 142 -574 -58 -16
-23 -32 -54 -35 -68 -8 -30 -28 -39 -84 -36 -38 3 -41 5 -70 63 -117 238 -432
283 -607 87 -13 -14 -38 -54 -55 -87 l-31 -61 -53 0 -53 0 -31 61 c-35 69 -75
116 -133 152 -88 56 -191 73 -288 48z"/>
</g>
</svg>
